<?xml version="1.0" standalone="no"?>
<!DOCTYPE svg PUBLIC "-//W3C//DTD SVG 20010904//EN"
 "http://www.w3.org/TR/2001/REC-SVG-20010904/DTD/svg10.dtd">
<svg version="1.0" xmlns="http://www.w3.org/2000/svg"
 width="880.000000pt" height="1031.000000pt" viewBox="0 0 880.000000 1031.000000"
 preserveAspectRatio="xMidYMid meet">

<g transform="translate(0.000000,1031.000000) scale(0.100000,-0.100000)"
fill="#000000" stroke="none">
<path d="M4250 9069 c-562 -62 -1076 -306 -1471 -699 -126 -126 -205 -217
-293 -342 l-48 -68 339 0 c186 0 377 -5 423 -10 285 -36 574 -137 787 -275
122 -80 165 -116 345 -294 l158 -155 137 135 c147 144 205 192 349 286 208
136 427 230 666 285 84 19 133 22 507 27 l414 6 -91 122 c-167 224 -385 431
-617 585 -134 89 -368 208 -520 263 -122 45 -334 99 -475 120 -125 19 -488 28
-610 14z"/>
<path d="M2196 7476 c-53 -146 -107 -359 -132 -521 -23 -149 -26 -520 -6 -665
36 -254 103 -490 204 -715 l54 -120 59 -3 c80 -4 181 21 292 73 189 89 243
136 863 751 l345 342 -279 273 c-498 490 -568 549 -740 630 -125 58 -174 67
-408 72 l-207 4 -45 -121z"/>
<path d="M6322 7589 c-114 -19 -291 -106 -431 -211 -31 -23 -221 -204 -424
-402 l-367 -360 446 -441 c469 -462 529 -516 659 -595 149 -90 271 -130 397
-130 l78 0 34 68 c100 200 177 447 222 712 22 130 30 479 15 622 -25 228 -80
458 -161 666 l-31 82 -192 -1 c-106 -1 -216 -5 -245 -10z"/>
<path d="M4207 5732 c-149 -147 -301 -288 -337 -313 -202 -142 -429 -238 -695
-295 -105 -23 -151 -27 -367 -31 -137 -3 -248 -8 -248 -11 0 -29 284 -318 415
-422 265 -210 632 -390 945 -465 258 -61 614 -82 870 -51 464 57 887 235 1245
523 113 91 301 276 370 364 l46 59 -229 0 c-185 0 -253 4 -348 20 -271 47
-572 180 -821 366 -50 38 -197 171 -326 297 -130 125 -238 227 -241 227 -4 0
-129 -121 -279 -268z"/>
<path d="M5160 3385 c-36 -8 -107 -35 -158 -61 -128 -62 -232 -165 -291 -286
-53 -108 -71 -182 -71 -293 0 -187 56 -321 190 -456 73 -74 99 -93 180 -132
144 -68 255 -87 400 -67 458 63 719 533 520 938 -76 154 -229 285 -394 338
-101 33 -275 41 -376 19z m255 -270 c301 -78 401 -435 180 -644 -81 -76 -149
-105 -260 -109 -70 -3 -102 1 -147 17 -108 37 -193 114 -240 217 -19 40 -23
66 -23 144 0 83 4 103 28 156 32 69 109 151 175 184 95 49 188 60 287 35z"/>
<path d="M2031 3298 c-16 -35 -151 -309 -299 -611 l-271 -547 171 2 172 3 40
93 41 92 300 0 300 0 41 -93 41 -92 326 -3 326 -2 128 184 c70 102 130 185
133 185 3 1 63 -82 134 -184 l130 -185 178 0 c98 0 178 2 178 5 0 2 -97 142
-215 311 -119 168 -217 309 -218 313 -1 4 86 133 194 287 107 153 199 285 203
292 6 9 -31 12 -172 12 l-180 0 -112 -160 c-62 -89 -116 -160 -120 -158 -5 2
-58 73 -118 158 l-109 155 -182 3 -182 2 32 -47 c18 -27 96 -138 174 -248 77
-110 155 -221 173 -246 l31 -47 -200 -286 c-110 -157 -204 -286 -207 -286 -4
0 -136 261 -294 580 l-287 580 -126 0 -126 0 -28 -62z m242 -508 l84 -185
-170 -3 c-93 -1 -172 -1 -174 2 -2 2 33 90 79 194 46 105 86 187 90 184 4 -4
45 -90 91 -192z"/>
<path d="M4240 2750 l0 -610 145 0 145 0 0 610 0 610 -145 0 -145 0 0 -610z"/>
<path d="M6117 3353 c-4 -3 -7 -278 -7 -610 l0 -603 145 0 145 0 0 432 c0 280
3 429 10 422 5 -5 131 -198 279 -429 l269 -420 191 -3 191 -2 0 610 0 610
-145 0 -145 0 -2 -421 -3 -421 -269 421 -268 421 -193 0 c-105 0 -195 -3 -198
-7z"/>
<path d="M4871 1826 c-54 -18 -97 -58 -113 -105 -6 -20 -12 -77 -11 -126 1
-118 21 -163 90 -196 40 -19 63 -23 143 -22 52 0 110 3 128 7 30 7 32 10 32
52 l0 44 -109 -2 c-95 -3 -111 -1 -130 16 -12 11 -21 31 -21 48 l0 28 146 0
147 0 -6 60 c-11 98 -42 157 -100 186 -41 22 -144 27 -196 10z m139 -106 c11
-11 20 -33 20 -50 l0 -30 -75 0 -75 0 0 30 c0 41 31 70 75 70 22 0 43 -8 55
-20z"/>
<path d="M5410 1821 c-30 -11 -56 -20 -57 -21 -2 0 -3 7 -3 15 0 12 -14 15
-65 15 l-65 0 0 -220 0 -220 70 0 70 0 2 162 3 162 43 13 c29 8 51 9 68 3 l24
-10 0 -165 0 -165 70 0 70 0 -1 168 c0 181 -8 224 -49 254 -39 28 -115 32
-180 9z"/>
<path d="M5824 1831 c-51 -13 -91 -42 -116 -85 -20 -36 -23 -54 -23 -141 0
-128 18 -168 90 -204 42 -21 62 -25 144 -24 53 0 111 3 129 7 30 7 32 10 32
52 l0 44 -109 -2 c-95 -3 -111 -1 -130 16 -12 11 -21 31 -21 48 l0 28 141 0
141 0 -4 73 c-6 125 -65 185 -187 193 -31 2 -70 0 -87 -5z m126 -111 c11 -11
20 -33 20 -50 l0 -30 -75 0 -75 0 0 30 c0 41 31 70 75 70 22 0 43 -8 55 -20z"/>
<path d="M6350 1828 c-19 -5 -39 -14 -44 -19 -15 -14 -26 -11 -26 6 0 12 -14
15 -65 15 l-65 0 0 -220 0 -220 70 0 70 0 0 159 0 160 48 6 c26 3 54 7 62 8
11 2 15 16 15 57 0 61 -6 65 -65 48z"/>
<path d="M6579 1831 c-47 -9 -97 -39 -122 -73 -23 -31 -35 -152 -23 -232 14
-93 80 -140 198 -140 67 -1 78 -3 78 -18 0 -10 -10 -28 -21 -39 -20 -20 -30
-21 -128 -18 l-106 4 0 -40 0 -40 55 -8 c84 -13 229 -4 267 16 60 32 63 48 63
330 l0 254 -77 7 c-89 7 -134 6 -184 -3z m109 -97 c21 -6 22 -10 22 -125 l0
-118 -34 -7 c-42 -7 -86 12 -103 46 -16 32 -16 128 0 160 20 40 65 57 115 44z"/>
<path d="M6880 1822 c0 -4 34 -99 75 -211 41 -111 75 -215 75 -232 0 -45 -31
-69 -90 -69 l-50 0 0 -40 c0 -48 14 -54 125 -48 87 4 118 22 151 89 22 43 164
485 164 508 0 8 -20 11 -67 9 l-67 -3 -41 -162 -41 -163 -45 163 -45 162 -72
3 c-40 2 -72 -1 -72 -6z"/>
</g>
</svg>
