<?xml version="1.0" standalone="no"?>
<!DOCTYPE svg PUBLIC "-//W3C//DTD SVG 20010904//EN"
 "http://www.w3.org/TR/2001/REC-SVG-20010904/DTD/svg10.dtd">
<svg version="1.0" xmlns="http://www.w3.org/2000/svg"
 width="204.000000pt" height="189.000000pt" viewBox="0 0 204.000000 189.000000"
 preserveAspectRatio="xMidYMid meet">

<g transform="translate(0.000000,189.000000) scale(0.100000,-0.100000)"
fill="#000000" stroke="none">
<path d="M910 1839 c-457 -54 -826 -445 -857 -905 -7 -111 11 -252 35 -271 10
-7 76 -56 149 -108 102 -74 133 -101 137 -123 3 -15 13 -98 22 -185 l18 -157
249 0 c238 0 251 -1 285 -22 43 -26 112 -27 150 -1 24 16 56 19 282 23 l255 5
21 180 c12 99 23 181 23 182 1 1 63 46 139 101 76 55 143 106 150 114 6 8 17
58 23 111 25 214 -33 435 -167 638 -46 70 -180 205 -254 255 -186 128 -438
190 -660 163z m74 -221 c3 -29 13 -251 22 -493 16 -425 23 -535 25 -369 0 43
8 266 17 494 l17 415 65 -1 c66 -1 161 -26 178 -47 7 -8 -19 -155 -79 -447
-49 -239 -88 -442 -86 -450 1 -8 51 159 111 370 60 212 115 407 123 433 13 46
16 48 41 42 51 -12 182 -111 182 -137 0 -5 -66 -149 -146 -321 -193 -412 -217
-464 -206 -452 5 6 89 149 187 320 97 171 186 325 197 343 l20 33 29 -27 c30
-28 99 -152 99 -177 0 -8 -104 -142 -231 -298 l-231 -284 239 238 239 238 13
-28 c17 -35 26 -147 17 -205 -7 -43 -9 -46 -155 -151 l-148 -106 -7 -58 c-3
-32 -11 -97 -18 -145 l-11 -88 -179 0 c-163 0 -183 -2 -208 -20 -50 -36 -73
-40 -117 -20 -22 10 -44 23 -47 29 -5 7 -67 11 -190 11 l-183 0 -6 38 c-3 20
-12 86 -18 145 l-13 108 -148 106 c-129 93 -149 111 -154 140 -9 47 0 183 15
217 l12 30 237 -235 c130 -129 227 -223 216 -209 -12 14 -115 139 -229 279
-193 236 -206 255 -201 285 7 35 92 172 112 180 8 3 85 -121 215 -347 111
-194 206 -356 211 -362 9 -10 3 3 -221 480 -78 164 -141 304 -141 311 0 28
128 126 182 139 23 6 28 3 33 -17 22 -84 244 -851 244 -843 1 9 -160 823 -174
882 -4 16 1 27 18 37 32 21 124 45 179 45 l47 1 5 -52z"/>
<path d="M1131 684 c0 -11 3 -14 6 -6 3 7 2 16 -1 19 -3 4 -6 -2 -5 -13z"/>
</g>
</svg>
