<?xml version="1.0" standalone="no"?>
<!DOCTYPE svg PUBLIC "-//W3C//DTD SVG 20010904//EN"
 "http://www.w3.org/TR/2001/REC-SVG-20010904/DTD/svg10.dtd">
<svg version="1.0" xmlns="http://www.w3.org/2000/svg"
 width="398.000000pt" height="155.000000pt" viewBox="0 0 398.000000 155.000000"
 preserveAspectRatio="xMidYMid meet">

<g transform="translate(0.000000,155.000000) scale(0.100000,-0.100000)"
fill="#000000" stroke="none">
<path d="M0 780 l0 -770 1990 0 1990 0 0 770 0 770 -1990 0 -1990 0 0 -770z
m3253 390 l307 0 0 -67 0 -68 -240 3 -240 3 0 -106 0 -106 200 3 200 3 0 -80
0 -80 -201 3 -200 3 3 -136 3 -135 -170 0 -170 0 2 382 c2 211 3 385 3 387 0
2 44 1 98 -2 53 -4 235 -7 405 -7z m-2463 -135 c52 -74 98 -135 101 -135 3 0
49 61 103 135 l97 135 159 0 158 0 -179 -225 -180 -225 3 -155 3 -155 -165 0
-165 0 3 157 3 158 -156 195 c-86 107 -168 207 -183 223 l-26 27 165 0 164 0
95 -135z m1628 100 c87 -48 122 -105 122 -200 0 -95 -42 -165 -125 -207 -43
-23 -173 -37 -347 -37 l-97 -1 -6 -34 c-4 -19 -5 -82 -3 -140 l3 -106 -174 0
c-147 0 -172 2 -162 14 9 10 11 114 9 381 l-3 366 365 -3 365 -3 53 -30z"/>
<path d="M1962 933 l3 -118 90 3 c135 5 175 32 175 121 0 79 -55 111 -193 111
l-78 0 3 -117z"/>
</g>
</svg>
